<svg width="934" height="345" viewBox="0 0 934 345" fill="none" xmlns="http://www.w3.org/2000/svg">
<path d="M748.798 109V99.2H751.514L755.434 105.598H754.006L757.814 99.2H760.53L760.558 109H757.548L757.52 103.736H757.996L755.392 108.118H753.936L751.22 103.736H751.808V109H748.798ZM776.631 99.2V105.094C776.631 106.419 776.3 107.423 775.637 108.104C774.984 108.776 774.046 109.112 772.823 109.112C772.105 109.112 771.47 108.986 770.919 108.734C770.378 108.473 769.963 108.118 769.673 107.67C769.375 108.118 768.959 108.473 768.427 108.734C767.895 108.986 767.265 109.112 766.537 109.112C765.315 109.112 764.377 108.776 763.723 108.104C763.07 107.423 762.743 106.419 762.743 105.094V99.2H764.143V105.052C764.143 106.928 764.941 107.866 766.537 107.866C767.312 107.866 767.914 107.637 768.343 107.18C768.773 106.723 768.987 106.013 768.987 105.052V99.2H770.387V105.052C770.387 106.013 770.597 106.723 771.017 107.18C771.447 107.637 772.049 107.866 772.823 107.866C774.429 107.866 775.231 106.928 775.231 105.052V99.2H776.631Z" fill="#F80000"/>
<path d="M338.011 109.935C325.012 56.9347 276.405 94.6608 232.011 119.935C111.682 188.449 178.051 197.952 221.511 231.342C250.674 253.732 300.218 298.874 316.012 214.935C335.603 110.797 301.011 124.768 269.011 139.935C237.011 155.101 198.011 168.935 213.011 181.935" stroke="#F80000" stroke-width="3.5" stroke-linecap="round" stroke-linejoin="round"/>
<path d="M394.128 221.768C387.408 221.768 381.328 220.296 375.888 217.352C370.512 214.344 366.288 210.248 363.216 205.064C360.144 199.816 358.608 193.928 358.608 187.4C358.608 180.872 360.144 175.016 363.216 169.832C366.288 164.584 370.544 160.488 375.984 157.544C381.424 154.536 387.504 153.032 394.224 153.032C399.472 153.032 404.272 153.928 408.624 155.72C412.976 157.448 416.688 160.04 419.76 163.496L413.52 169.544C408.464 164.232 402.16 161.576 394.608 161.576C389.616 161.576 385.104 162.696 381.072 164.936C377.04 167.176 373.872 170.28 371.568 174.248C369.328 178.152 368.208 182.536 368.208 187.4C368.208 192.264 369.328 196.68 371.568 200.648C373.872 204.552 377.04 207.624 381.072 209.864C385.104 212.104 389.616 213.224 394.608 213.224C402.096 213.224 408.4 210.536 413.52 205.16L419.76 211.208C416.688 214.664 412.944 217.288 408.528 219.08C404.176 220.872 399.376 221.768 394.128 221.768ZM451.747 221.576C446.691 221.576 442.147 220.456 438.115 218.216C434.083 215.976 430.915 212.904 428.611 209C426.371 205.032 425.251 200.552 425.251 195.56C425.251 190.568 426.371 186.12 428.611 182.216C430.915 178.248 434.083 175.176 438.115 173C442.147 170.76 446.691 169.64 451.747 169.64C456.803 169.64 461.315 170.76 465.283 173C469.315 175.176 472.451 178.248 474.691 182.216C476.995 186.12 478.147 190.568 478.147 195.56C478.147 200.552 476.995 205.032 474.691 209C472.451 212.904 469.315 215.976 465.283 218.216C461.315 220.456 456.803 221.576 451.747 221.576ZM451.747 213.512C455.011 213.512 457.923 212.776 460.483 211.304C463.107 209.768 465.155 207.656 466.627 204.968C468.099 202.216 468.835 199.08 468.835 195.56C468.835 192.04 468.099 188.936 466.627 186.248C465.155 183.496 463.107 181.384 460.483 179.912C457.923 178.44 455.011 177.704 451.747 177.704C448.483 177.704 445.539 178.44 442.915 179.912C440.355 181.384 438.307 183.496 436.771 186.248C435.299 188.936 434.563 192.04 434.563 195.56C434.563 199.08 435.299 202.216 436.771 204.968C438.307 207.656 440.355 209.768 442.915 211.304C445.539 212.776 448.483 213.512 451.747 213.512ZM538.892 149.768V221H530.06V212.936C528.012 215.752 525.42 217.896 522.284 219.368C519.148 220.84 515.692 221.576 511.916 221.576C506.988 221.576 502.572 220.488 498.668 218.312C494.764 216.136 491.692 213.096 489.452 209.192C487.276 205.224 486.188 200.68 486.188 195.56C486.188 190.44 487.276 185.928 489.452 182.024C491.692 178.12 494.764 175.08 498.668 172.904C502.572 170.728 506.988 169.64 511.916 169.64C515.564 169.64 518.924 170.344 521.996 171.752C525.068 173.096 527.628 175.112 529.676 177.8V149.768H538.892ZM512.684 213.512C515.884 213.512 518.796 212.776 521.42 211.304C524.044 209.768 526.092 207.656 527.564 204.968C529.036 202.216 529.772 199.08 529.772 195.56C529.772 192.04 529.036 188.936 527.564 186.248C526.092 183.496 524.044 181.384 521.42 179.912C518.796 178.44 515.884 177.704 512.684 177.704C509.42 177.704 506.476 178.44 503.852 179.912C501.292 181.384 499.244 183.496 497.708 186.248C496.236 188.936 495.5 192.04 495.5 195.56C495.5 199.08 496.236 202.216 497.708 204.968C499.244 207.656 501.292 209.768 503.852 211.304C506.476 212.776 509.42 213.512 512.684 213.512ZM579.274 213.512C585.354 213.512 590.25 211.464 593.962 207.368L598.954 213.32C596.714 216.008 593.866 218.056 590.41 219.464C587.018 220.872 583.21 221.576 578.986 221.576C573.61 221.576 568.842 220.488 564.682 218.312C560.522 216.072 557.29 212.968 554.986 209C552.746 205.032 551.626 200.552 551.626 195.56C551.626 190.632 552.714 186.184 554.89 182.216C557.13 178.248 560.17 175.176 564.01 173C567.914 170.76 572.298 169.64 577.162 169.64C581.77 169.64 585.962 170.696 589.738 172.808C593.514 174.856 596.522 177.768 598.762 181.544C601.002 185.32 602.154 189.672 602.218 194.6L561.802 202.472C563.082 205.992 565.226 208.712 568.234 210.632C571.306 212.552 574.986 213.512 579.274 213.512ZM577.162 177.416C573.962 177.416 571.082 178.152 568.522 179.624C566.026 181.096 564.074 183.176 562.666 185.864C561.258 188.488 560.554 191.56 560.554 195.08V196.04L593.098 189.896C592.266 186.184 590.41 183.176 587.53 180.872C584.65 178.568 581.194 177.416 577.162 177.416ZM685.751 170.888V221H681.047V209.192C679.063 213.096 676.279 216.104 672.695 218.216C669.111 220.328 665.047 221.384 660.503 221.384C655.831 221.384 651.607 220.296 647.831 218.12C644.055 215.944 641.079 212.936 638.903 209.096C636.791 205.256 635.735 200.872 635.735 195.944C635.735 191.016 636.791 186.632 638.903 182.792C641.079 178.888 644.055 175.88 647.831 173.768C651.607 171.592 655.831 170.504 660.503 170.504C664.983 170.504 668.983 171.56 672.503 173.672C676.087 175.784 678.903 178.728 680.951 182.504V170.888H685.751ZM660.791 217.064C664.631 217.064 668.055 216.168 671.063 214.376C674.135 212.584 676.535 210.088 678.263 206.888C680.055 203.688 680.951 200.04 680.951 195.944C680.951 191.848 680.055 188.2 678.263 185C676.535 181.8 674.135 179.304 671.063 177.512C668.055 175.72 664.631 174.824 660.791 174.824C656.951 174.824 653.495 175.72 650.423 177.512C647.415 179.304 645.015 181.8 643.223 185C641.495 188.2 640.631 191.848 640.631 195.944C640.631 200.04 641.495 203.688 643.223 206.888C645.015 210.088 647.415 212.584 650.423 214.376C653.495 216.168 656.951 217.064 660.791 217.064ZM731.141 170.504C735.813 170.504 740.037 171.592 743.812 173.768C747.589 175.88 750.533 178.888 752.645 182.792C754.821 186.632 755.909 191.016 755.909 195.944C755.909 200.872 754.821 205.256 752.645 209.096C750.533 212.936 747.589 215.944 743.812 218.12C740.037 220.296 735.813 221.384 731.141 221.384C726.661 221.384 722.597 220.328 718.949 218.216C715.365 216.04 712.581 213.032 710.597 209.192V221H705.989V149.768H710.789V182.312C712.773 178.6 715.557 175.72 719.141 173.672C722.725 171.56 726.725 170.504 731.141 170.504ZM730.853 217.064C734.693 217.064 738.149 216.168 741.221 214.376C744.293 212.584 746.693 210.088 748.421 206.888C750.213 203.688 751.109 200.04 751.109 195.944C751.109 191.848 750.213 188.2 748.421 185C746.693 181.8 744.293 179.304 741.221 177.512C738.149 175.72 734.693 174.824 730.853 174.824C727.013 174.824 723.557 175.72 720.484 177.512C717.477 179.304 715.077 181.8 713.285 185C711.557 188.2 710.693 191.848 710.693 195.944C710.693 200.04 711.557 203.688 713.285 206.888C715.077 210.088 717.477 212.584 720.484 214.376C723.557 216.168 727.013 217.064 730.853 217.064ZM768.6 221.384C767.512 221.384 766.552 221 765.72 220.232C764.952 219.4 764.568 218.408 764.568 217.256C764.568 216.104 764.952 215.144 765.72 214.376C766.552 213.608 767.512 213.224 768.6 213.224C769.688 213.224 770.616 213.608 771.384 214.376C772.216 215.144 772.632 216.104 772.632 217.256C772.632 218.408 772.216 219.4 771.384 220.232C770.616 221 769.688 221.384 768.6 221.384Z" fill="#F80000"/>
<path d="M628.664 217.573C624.748 219.155 621.308 219.268 618.344 217.912C615.356 216.496 613.071 213.83 611.488 209.913L589.731 156.062L594.182 154.264L615.723 207.581C616.946 210.607 618.563 212.646 620.575 213.697C622.563 214.688 624.922 214.632 627.652 213.529C629.195 212.906 630.558 212.01 631.743 210.841L633.609 214.436C632.211 215.76 630.563 216.805 628.664 217.573Z" fill="#F80000"/>
</svg>
