<svg width="934" height="345" viewBox="0 0 934 345" fill="none" xmlns="http://www.w3.org/2000/svg">
<path d="M748.798 109V99.2H751.514L755.434 105.598H754.006L757.814 99.2H760.53L760.558 109H757.548L757.52 103.736H757.996L755.392 108.118H753.936L751.22 103.736H751.808V109H748.798ZM776.631 99.2V105.094C776.631 106.419 776.3 107.423 775.637 108.104C774.984 108.776 774.046 109.112 772.823 109.112C772.105 109.112 771.47 108.986 770.919 108.734C770.378 108.473 769.963 108.118 769.673 107.67C769.375 108.118 768.959 108.473 768.427 108.734C767.895 108.986 767.265 109.112 766.537 109.112C765.315 109.112 764.377 108.776 763.723 108.104C763.07 107.423 762.743 106.419 762.743 105.094V99.2H764.143V105.052C764.143 106.928 764.941 107.866 766.537 107.866C767.312 107.866 767.914 107.637 768.343 107.18C768.773 106.723 768.987 106.013 768.987 105.052V99.2H770.387V105.052C770.387 106.013 770.597 106.723 771.017 107.18C771.447 107.637 772.049 107.866 772.823 107.866C774.429 107.866 775.231 106.928 775.231 105.052V99.2H776.631Z" fill="#F80000"/>
<path d="M338.011 109.935C325.012 56.9347 276.405 94.6608 232.011 119.935C111.682 188.449 178.051 197.952 221.511 231.342C250.674 253.732 300.218 298.874 316.012 214.935C335.603 110.797 301.011 124.768 269.011 139.935C237.011 155.101 198.011 168.935 213.011 181.935" stroke="#F80000" stroke-linecap="round" stroke-linejoin="round"/>
<path d="M394.128 221.48C387.536 221.48 381.584 220.008 376.272 217.064C371.024 214.12 366.864 210.056 363.792 204.872C360.784 199.688 359.28 193.864 359.28 187.4C359.28 180.936 360.784 175.112 363.792 169.928C366.864 164.744 371.024 160.68 376.272 157.736C381.584 154.792 387.536 153.32 394.128 153.32C398.992 153.32 403.472 154.12 407.568 155.72C411.664 157.256 415.152 159.56 418.032 162.632L414.96 165.8C409.584 160.488 402.704 157.832 394.32 157.832C388.688 157.832 383.568 159.112 378.96 161.672C374.352 164.232 370.736 167.784 368.112 172.328C365.488 176.808 364.176 181.832 364.176 187.4C364.176 192.968 365.488 198.024 368.112 202.568C370.736 207.048 374.352 210.568 378.96 213.128C383.568 215.688 388.688 216.968 394.32 216.968C402.64 216.968 409.52 214.28 414.96 208.904L418.032 212.072C415.152 215.144 411.632 217.48 407.472 219.08C403.376 220.68 398.928 221.48 394.128 221.48ZM450.135 221.384C445.399 221.384 441.111 220.296 437.271 218.12C433.495 215.944 430.519 212.936 428.343 209.096C426.167 205.192 425.079 200.808 425.079 195.944C425.079 191.08 426.167 186.728 428.343 182.888C430.519 178.984 433.495 175.944 437.271 173.768C441.111 171.592 445.399 170.504 450.135 170.504C454.871 170.504 459.127 171.592 462.903 173.768C466.743 175.944 469.751 178.984 471.927 182.888C474.103 186.728 475.191 191.08 475.191 195.944C475.191 200.808 474.103 205.192 471.927 209.096C469.751 212.936 466.743 215.944 462.903 218.12C459.127 220.296 454.871 221.384 450.135 221.384ZM450.135 217.064C453.975 217.064 457.399 216.168 460.407 214.376C463.479 212.584 465.879 210.088 467.607 206.888C469.399 203.688 470.295 200.04 470.295 195.944C470.295 191.848 469.399 188.2 467.607 185C465.879 181.8 463.479 179.304 460.407 177.512C457.399 175.72 453.975 174.824 450.135 174.824C446.295 174.824 442.839 175.72 439.767 177.512C436.759 179.304 434.359 181.8 432.567 185C430.839 188.2 429.975 191.848 429.975 195.944C429.975 200.04 430.839 203.688 432.567 206.888C434.359 210.088 436.759 212.584 439.767 214.376C442.839 216.168 446.295 217.064 450.135 217.064ZM534.626 149.768V221H529.922V209.192C527.938 213.096 525.154 216.104 521.57 218.216C517.986 220.328 513.922 221.384 509.378 221.384C504.706 221.384 500.482 220.296 496.706 218.12C492.93 215.944 489.954 212.936 487.778 209.096C485.666 205.256 484.61 200.872 484.61 195.944C484.61 191.016 485.666 186.632 487.778 182.792C489.954 178.888 492.93 175.88 496.706 173.768C500.482 171.592 504.706 170.504 509.378 170.504C513.858 170.504 517.858 171.56 521.378 173.672C524.962 175.784 527.778 178.728 529.826 182.504V149.768H534.626ZM509.666 217.064C513.506 217.064 516.93 216.168 519.938 214.376C523.01 212.584 525.41 210.088 527.138 206.888C528.93 203.688 529.826 200.04 529.826 195.944C529.826 191.848 528.93 188.2 527.138 185C525.41 181.8 523.01 179.304 519.938 177.512C516.93 175.72 513.506 174.824 509.666 174.824C505.826 174.824 502.37 175.72 499.298 177.512C496.29 179.304 493.89 181.8 492.098 185C490.37 188.2 489.506 191.848 489.506 195.944C489.506 200.04 490.37 203.688 492.098 206.888C493.89 210.088 496.29 212.584 499.298 214.376C502.37 216.168 505.826 217.064 509.666 217.064ZM575.408 217.064C578.672 217.064 581.68 216.488 584.432 215.336C587.248 214.12 589.584 212.36 591.44 210.056L594.224 213.224C592.048 215.912 589.328 217.96 586.064 219.368C582.8 220.712 579.216 221.384 575.312 221.384C570.32 221.384 565.84 220.296 561.872 218.12C557.968 215.944 554.896 212.936 552.656 209.096C550.48 205.256 549.392 200.872 549.392 195.944C549.392 191.016 550.416 186.632 552.464 182.792C554.576 178.952 557.488 175.944 561.2 173.768C564.912 171.592 569.104 170.504 573.776 170.504C578.128 170.504 582.032 171.528 585.488 173.576C589.008 175.56 591.792 178.344 593.84 181.928C595.952 185.448 597.104 189.416 597.296 193.832L554.96 202.088C556.176 206.696 558.608 210.344 562.256 213.032C565.904 215.72 570.288 217.064 575.408 217.064ZM573.776 174.728C570 174.728 566.608 175.624 563.6 177.416C560.592 179.144 558.256 181.608 556.592 184.808C554.928 187.944 554.096 191.528 554.096 195.56C554.096 196.264 554.16 197.256 554.288 198.536L592.496 191.048C592.048 188.04 590.992 185.288 589.328 182.792C587.664 180.296 585.488 178.344 582.8 176.936C580.112 175.464 577.104 174.728 573.776 174.728ZM680.001 171.368V221H678.081V205.832C676.417 210.568 673.601 214.344 669.633 217.16C665.665 219.912 661.089 221.288 655.905 221.288C651.425 221.288 647.329 220.232 643.617 218.12C639.969 215.944 637.089 212.936 634.977 209.096C632.865 205.256 631.809 200.936 631.809 196.136C631.809 191.336 632.865 187.048 634.977 183.272C637.089 179.432 639.969 176.456 643.617 174.344C647.329 172.168 651.425 171.08 655.905 171.08C661.025 171.08 665.569 172.488 669.537 175.304C673.569 178.056 676.417 181.768 678.081 186.44V171.368H680.001ZM655.905 219.464C660.065 219.464 663.841 218.472 667.233 216.488C670.625 214.504 673.281 211.752 675.201 208.232C677.121 204.648 678.081 200.616 678.081 196.136C678.081 191.656 677.121 187.656 675.201 184.136C673.281 180.552 670.625 177.8 667.233 175.88C663.841 173.896 660.065 172.904 655.905 172.904C651.745 172.904 647.969 173.896 644.577 175.88C641.185 177.8 638.529 180.552 636.609 184.136C634.689 187.656 633.729 191.656 633.729 196.136C633.729 200.616 634.689 204.648 636.609 208.232C638.529 211.752 641.185 214.504 644.577 216.488C647.969 218.472 651.745 219.464 655.905 219.464ZM726.167 171.08C730.647 171.08 734.711 172.168 738.359 174.344C742.071 176.456 744.983 179.432 747.095 183.272C749.207 187.048 750.263 191.336 750.263 196.136C750.263 200.936 749.207 205.256 747.095 209.096C744.983 212.936 742.071 215.944 738.359 218.12C734.711 220.232 730.647 221.288 726.167 221.288C720.983 221.288 716.407 219.912 712.439 217.16C708.471 214.344 705.655 210.568 703.991 205.832V221H702.071V149.768H703.991V186.44C705.655 181.768 708.471 178.056 712.439 175.304C716.471 172.488 721.047 171.08 726.167 171.08ZM726.167 219.464C730.327 219.464 734.103 218.472 737.495 216.488C740.887 214.504 743.543 211.752 745.463 208.232C747.383 204.648 748.343 200.616 748.343 196.136C748.343 191.656 747.383 187.656 745.463 184.136C743.543 180.552 740.887 177.8 737.495 175.88C734.103 173.896 730.327 172.904 726.167 172.904C722.007 172.904 718.231 173.896 714.839 175.88C711.447 177.8 708.791 180.552 706.871 184.136C704.951 187.656 703.991 191.656 703.991 196.136C703.991 200.616 704.951 204.648 706.871 208.232C708.791 211.752 711.447 214.504 714.839 216.488C718.231 218.472 722.007 219.464 726.167 219.464ZM765.038 221.384C763.95 221.384 762.99 221 762.158 220.232C761.39 219.4 761.006 218.408 761.006 217.256C761.006 216.104 761.39 215.144 762.158 214.376C762.99 213.608 763.95 213.224 765.038 213.224C766.126 213.224 767.054 213.608 767.822 214.376C768.654 215.144 769.07 216.104 769.07 217.256C769.07 218.408 768.654 219.4 767.822 220.232C767.054 221 766.126 221.384 765.038 221.384Z" fill="#F80000"/>
<path d="M628.094 217.699C624.593 219.114 621.515 219.184 618.861 217.91C616.182 216.576 614.147 214.188 612.757 210.747L590.532 155.739L592.312 155.019L614.357 209.582C617.066 216.288 621.388 218.442 627.322 216.044C629.043 215.349 630.448 214.471 631.538 213.409L632.452 214.903C631.208 216.096 629.756 217.028 628.094 217.699Z" fill="#F80000"/>
</svg>
