<svg width="934" height="345" viewBox="0 0 934 345" fill="none" xmlns="http://www.w3.org/2000/svg">
<path d="M645.798 125V115.2H648.514L652.434 121.598H651.006L654.814 115.2H657.53L657.558 125H654.548L654.52 119.736H654.996L652.392 124.118H650.936L648.22 119.736H648.808V125H645.798ZM673.631 115.2V121.094C673.631 122.419 673.3 123.423 672.637 124.104C671.984 124.776 671.046 125.112 669.823 125.112C669.105 125.112 668.47 124.986 667.919 124.734C667.378 124.473 666.963 124.118 666.673 123.67C666.375 124.118 665.959 124.473 665.427 124.734C664.895 124.986 664.265 125.112 663.537 125.112C662.315 125.112 661.377 124.776 660.723 124.104C660.07 123.423 659.743 122.419 659.743 121.094V115.2H661.143V121.052C661.143 122.928 661.941 123.866 663.537 123.866C664.312 123.866 664.914 123.637 665.343 123.18C665.773 122.723 665.987 122.013 665.987 121.052V115.2H667.387V121.052C667.387 122.013 667.597 122.723 668.017 123.18C668.447 123.637 669.049 123.866 669.823 123.866C671.429 123.866 672.231 122.928 672.231 121.052V115.2H673.631Z" fill="white"/>
<path d="M343.76 206.384C339.024 206.384 334.736 205.296 330.896 203.12C327.12 200.944 324.144 197.936 321.968 194.096C319.792 190.192 318.704 185.808 318.704 180.944C318.704 176.08 319.792 171.728 321.968 167.888C324.144 163.984 327.12 160.944 330.896 158.768C334.736 156.592 339.024 155.504 343.76 155.504C348.496 155.504 352.752 156.592 356.528 158.768C360.368 160.944 363.376 163.984 365.552 167.888C367.728 171.728 368.816 176.08 368.816 180.944C368.816 185.808 367.728 190.192 365.552 194.096C363.376 197.936 360.368 200.944 356.528 203.12C352.752 205.296 348.496 206.384 343.76 206.384ZM343.76 202.064C347.6 202.064 351.024 201.168 354.032 199.376C357.104 197.584 359.504 195.088 361.232 191.888C363.024 188.688 363.92 185.04 363.92 180.944C363.92 176.848 363.024 173.2 361.232 170C359.504 166.8 357.104 164.304 354.032 162.512C351.024 160.72 347.6 159.824 343.76 159.824C339.92 159.824 336.464 160.72 333.392 162.512C330.384 164.304 327.984 166.8 326.192 170C324.464 173.2 323.6 176.848 323.6 180.944C323.6 185.04 324.464 188.688 326.192 191.888C327.984 195.088 330.384 197.584 333.392 199.376C336.464 201.168 339.92 202.064 343.76 202.064ZM428.251 134.768V206H423.547V194.192C421.563 198.096 418.779 201.104 415.195 203.216C411.611 205.328 407.547 206.384 403.003 206.384C398.331 206.384 394.107 205.296 390.331 203.12C386.555 200.944 383.579 197.936 381.403 194.096C379.291 190.256 378.235 185.872 378.235 180.944C378.235 176.016 379.291 171.632 381.403 167.792C383.579 163.888 386.555 160.88 390.331 158.768C394.107 156.592 398.331 155.504 403.003 155.504C407.483 155.504 411.483 156.56 415.003 158.672C418.587 160.784 421.403 163.728 423.451 167.504V134.768H428.251ZM403.291 202.064C407.131 202.064 410.555 201.168 413.563 199.376C416.635 197.584 419.035 195.088 420.763 191.888C422.555 188.688 423.451 185.04 423.451 180.944C423.451 176.848 422.555 173.2 420.763 170C419.035 166.8 416.635 164.304 413.563 162.512C410.555 160.72 407.131 159.824 403.291 159.824C399.451 159.824 395.995 160.72 392.923 162.512C389.915 164.304 387.515 166.8 385.723 170C383.995 173.2 383.131 176.848 383.131 180.944C383.131 185.04 383.995 188.688 385.723 191.888C387.515 195.088 389.915 197.584 392.923 199.376C395.995 201.168 399.451 202.064 403.291 202.064ZM469.033 202.064C472.297 202.064 475.305 201.488 478.057 200.336C480.873 199.12 483.209 197.36 485.065 195.056L487.849 198.224C485.673 200.912 482.953 202.96 479.689 204.368C476.425 205.712 472.841 206.384 468.937 206.384C463.945 206.384 459.465 205.296 455.497 203.12C451.593 200.944 448.521 197.936 446.281 194.096C444.105 190.256 443.017 185.872 443.017 180.944C443.017 176.016 444.041 171.632 446.089 167.792C448.201 163.952 451.113 160.944 454.825 158.768C458.537 156.592 462.729 155.504 467.401 155.504C471.753 155.504 475.657 156.528 479.113 158.576C482.633 160.56 485.417 163.344 487.465 166.928C489.577 170.448 490.729 174.416 490.921 178.832L448.585 187.088C449.801 191.696 452.233 195.344 455.881 198.032C459.529 200.72 463.913 202.064 469.033 202.064ZM467.401 159.728C463.625 159.728 460.233 160.624 457.225 162.416C454.217 164.144 451.881 166.608 450.217 169.808C448.553 172.944 447.721 176.528 447.721 180.56C447.721 181.264 447.785 182.256 447.913 183.536L486.121 176.048C485.673 173.04 484.617 170.288 482.953 167.792C481.289 165.296 479.113 163.344 476.425 161.936C473.737 160.464 470.729 159.728 467.401 159.728ZM573.626 156.368V206H571.706V190.832C570.042 195.568 567.226 199.344 563.258 202.16C559.29 204.912 554.714 206.288 549.53 206.288C545.05 206.288 540.954 205.232 537.242 203.12C533.594 200.944 530.714 197.936 528.602 194.096C526.49 190.256 525.434 185.936 525.434 181.136C525.434 176.336 526.49 172.048 528.602 168.272C530.714 164.432 533.594 161.456 537.242 159.344C540.954 157.168 545.05 156.08 549.53 156.08C554.65 156.08 559.194 157.488 563.162 160.304C567.194 163.056 570.042 166.768 571.706 171.44V156.368H573.626ZM549.53 204.464C553.69 204.464 557.466 203.472 560.858 201.488C564.25 199.504 566.906 196.752 568.826 193.232C570.746 189.648 571.706 185.616 571.706 181.136C571.706 176.656 570.746 172.656 568.826 169.136C566.906 165.552 564.25 162.8 560.858 160.88C557.466 158.896 553.69 157.904 549.53 157.904C545.37 157.904 541.594 158.896 538.202 160.88C534.81 162.8 532.154 165.552 530.234 169.136C528.314 172.656 527.354 176.656 527.354 181.136C527.354 185.616 528.314 189.648 530.234 193.232C532.154 196.752 534.81 199.504 538.202 201.488C541.594 203.472 545.37 204.464 549.53 204.464ZM619.792 156.08C624.272 156.08 628.336 157.168 631.984 159.344C635.696 161.456 638.608 164.432 640.72 168.272C642.832 172.048 643.888 176.336 643.888 181.136C643.888 185.936 642.832 190.256 640.72 194.096C638.608 197.936 635.696 200.944 631.984 203.12C628.336 205.232 624.272 206.288 619.792 206.288C614.608 206.288 610.032 204.912 606.064 202.16C602.096 199.344 599.28 195.568 597.616 190.832V206H595.696V134.768H597.616V171.44C599.28 166.768 602.096 163.056 606.064 160.304C610.096 157.488 614.672 156.08 619.792 156.08ZM619.792 204.464C623.952 204.464 627.728 203.472 631.12 201.488C634.512 199.504 637.168 196.752 639.088 193.232C641.008 189.648 641.968 185.616 641.968 181.136C641.968 176.656 641.008 172.656 639.088 169.136C637.168 165.552 634.512 162.8 631.12 160.88C627.728 158.896 623.952 157.904 619.792 157.904C615.632 157.904 611.856 158.896 608.464 160.88C605.072 162.8 602.416 165.552 600.496 169.136C598.576 172.656 597.616 176.656 597.616 181.136C597.616 185.616 598.576 189.648 600.496 193.232C602.416 196.752 605.072 199.504 608.464 201.488C611.856 203.472 615.632 204.464 619.792 204.464ZM658.663 206.384C657.575 206.384 656.615 206 655.783 205.232C655.015 204.4 654.631 203.408 654.631 202.256C654.631 201.104 655.015 200.144 655.783 199.376C656.615 198.608 657.575 198.224 658.663 198.224C659.751 198.224 660.679 198.608 661.447 199.376C662.279 200.144 662.695 201.104 662.695 202.256C662.695 203.408 662.279 204.4 661.447 205.232C660.679 206 659.751 206.384 658.663 206.384Z" fill="white"/>
<path d="M525.094 202.699C521.593 204.114 518.515 204.184 515.861 202.91C513.182 201.576 511.147 199.188 509.757 195.747L487.532 140.739L489.312 140.019L511.357 194.582C514.066 201.288 518.388 203.442 524.322 201.044C526.043 200.349 527.448 199.471 528.538 198.409L529.452 199.903C528.208 201.096 526.756 202.028 525.094 202.699Z" fill="white"/>
<path d="M308.964 168.5H303.957C303.585 166.636 302.91 164.913 301.933 163.333C300.974 161.735 299.767 160.341 298.311 159.152C296.855 157.962 295.204 157.039 293.357 156.382C291.511 155.725 289.513 155.396 287.365 155.396C283.92 155.396 280.777 156.293 277.936 158.086C275.113 159.88 272.849 162.516 271.145 165.996C269.458 169.459 268.615 173.702 268.615 178.727C268.615 183.788 269.458 188.049 271.145 191.511C272.849 194.974 275.113 197.602 277.936 199.395C280.777 201.17 283.92 202.058 287.365 202.058C289.513 202.058 291.511 201.73 293.357 201.073C295.204 200.416 296.855 199.501 298.311 198.33C299.767 197.14 300.974 195.746 301.933 194.148C302.91 192.55 303.585 190.819 303.957 188.955H308.964C308.521 191.458 307.686 193.793 306.461 195.959C305.254 198.108 303.709 199.99 301.827 201.605C299.962 203.221 297.814 204.482 295.381 205.387C292.949 206.293 290.277 206.746 287.365 206.746C282.784 206.746 278.718 205.6 275.167 203.31C271.615 201.002 268.828 197.752 266.804 193.562C264.797 189.372 263.794 184.427 263.794 178.727C263.794 173.028 264.797 168.083 266.804 163.892C268.828 159.702 271.615 156.462 275.167 154.171C278.718 151.863 282.784 150.709 287.365 150.709C290.277 150.709 292.949 151.162 295.381 152.067C297.814 152.955 299.962 154.216 301.827 155.849C303.709 157.465 305.254 159.347 306.461 161.495C307.686 163.644 308.521 165.979 308.964 168.5Z" fill="white"/>
</svg>
